# AST/ASF file generated using VICON BodyLanguage
# -----------------------------------------------
:version 1.10
:name VICON
:units
  mass 1.0
  length 0.45
  angle deg
:documentation
   .ast/.asf automatically generated from VICON data using
   VICON BodyBuilder and BodyLanguage model FoxedUp or BRILLIANT.MOD
:root
   order TX TY TZ RX RY RZ
   axis XYZ
   position 0 0 0  
   orientation 0 0 0 
:bonedata
  begin
     id 1 
     name lhipjoint
     direction 0.537252 -0.787203 0.302774 
     length 2.29576 
     axis 0 0 0  XYZ
  end
  begin
     id 2 
     name lfemur
     direction 0.34202 -0.939693 0  
     length 7.31114  
     axis 0 0 20  XYZ
    dof rx ry rz
    limits (-160.0 20.0)
           (-70.0 70.0)
           (-60.0 70.0)
  end
  begin
     id 3 
     name ltibia
     direction 0.34202 -0.939693 0   
     length 8.36008   
     axis 0 0 20   XYZ
    dof rx
    limits (-10.0 170.0)
  end
  begin
     id 4 
     name lfoot
     direction 0.0969116 -0.266263 0.959016   
     length 2.16704   
     axis -90 7.62852e-016 20   XYZ
    dof rx rz
    limits (-45.0 90.0)
           (-70.0 20.0)
  end
  begin
     id 5 
     name ltoes
     direction 1.53563e-011 -4.21779e-011 1   
     length 1.08338   
     axis -90 7.62852e-016 20   XYZ
    dof rx
    limits (-90.0 20.0)
  end
  begin
     id 6 
     name rhipjoint
     direction -0.588228 -0.754791 0.290308   
     length 2.39434  
     axis 0 0 0  XYZ 
  end
  begin
     id 7 
     name rfemur
     direction -0.34202 -0.939693 0   
     length 7.45207   
     axis 0 0 -20   XYZ
    dof rx ry rz
    limits (-160.0 20.0)
           (-70.0 70.0)
           (-70.0 60.0)
  end
  begin
     id 8 
     name rtibia
     direction -0.34202 -0.939693 0   
     length 8.03565   
     axis 0 0 -20   XYZ
    dof rx
    limits (-10.0 170.0)
 end
 begin
     id 9 
     name rfoot
     direction -0.107009 -0.294004 0.949795   
     length 2.11509  
     axis -90 -7.62852e-016 -20   XYZ
    dof rx rz
    limits (-45.0 90.0)
           (-20.0 70.0)
  end
  begin
     id 10 
     name rtoes
     direction -1.53533e-011 -4.22004e-011 1   
     length 1.05493   
     axis -90 -7.62852e-016 -20   XYZ
    dof rx
    limits (-90.0 20.0)
  end
  begin
     id 11 
     name lowerback
     direction -0.0115208 0.997969 -0.0626515   
     length 2.03153   
     axis 0 0 0   XYZ
    dof rx ry rz
    limits (-20.0 45.0)
           (-30.0 30.0)
           (-30.0 30.0)
  end
  begin
     id 12 
     name upperback
     direction -0.00423475 0.999974 -0.00583614   
     length 2.03619   
     axis 0 0 0   XYZ
    dof rx ry rz
    limits (-20.0 45.0)
           (-30.0 30.0)
           (-30.0 30.0)
  end
  begin
     id 13 
     name thorax
     direction 0.00289429 0.999728 0.0231573   
     length 2.03921   
     axis 0 0 0   XYZ
    dof rx ry rz
    limits (-20.0 45.0)
           (-30.0 30.0)
           (-30.0 30.0)
  end
  begin
     id 14 
     name lowerneck
     direction 0.0188995 0.987777 0.154721   
     length 1.78836   
     axis 0 0 0   XYZ
    dof rx ry rz
    limits (-20.0 45.0)
           (-30.0 30.0)
           (-30.0 30.0)
  end
  begin
     id 15 
     name upperneck
     direction -0.00612612 0.992995 -0.118   
     length 1.81789   
     axis 0 0 0   XYZ
    dof rx ry rz
    limits (-20.0 45.0)
           (-30.0 30.0)
           (-30.0 30.0)
  end
  begin
     id 16
     name head
     direction -0.00420226 0.998397 -0.0564482  
     length 1.82234  
     axis 0 0 0   XYZ
    dof rx ry rz
    limits (-20.0 45.0)
           (-30.0 30.0)
           (-30.0 30.0)
  end
  begin
     id 17 
     name lclavicle
     direction 0.916488 0.396539 0.0529676  
     length 3.51732  
     axis 0 0 0   XYZ
    dof ry rz
    limits (-20.0 10.0)
           (0.0 20.0)
  end
  begin
     id 18 
     name lhumerus
     direction 1 -4.4896e-011 8.36962e-028   
     length 5.45077   
     axis 180 -30 -90   XYZ
    dof rx ry rz
    limits (-60.0 90.0)
           (-90.0 90.0)
           (-90.0 90.0)
  end
  begin
     id 19
     name lradius
     direction 1 -4.48962e-011 3.01407e-027   
     length 3.05488   
     axis 180 -30 -90   XYZ
    dof rx
    limits (-10.0 170.0)
  end
  begin
     id 20
     name lwrist
     direction 1 -4.49002e-011 4.72961e-027   
     length 1.52744   
     axis -2.72261e-015 90 90   XYZ
    dof ry
    limits (-180.0 0.0)
 end
  begin
     id 21 
     name lhand
     direction 1 -4.4899e-011 9.45681e-027   
     length 0.638818   
     axis -6.0311e-015 90 90   XYZ
    dof rx rz
    limits (-90.0 90.0)
           (-45.0 45.0)
  end
  begin
     id 22 
     name lfingers
     direction 1 -4.48871e-011 1.88632e-026   
     length 0.515032   
     axis -1.20625e-014 90 90   XYZ
    dof rx
    limits (0.0 90.0)
  end
  begin
     id 23
     name lthumb
     direction 0.707107 -6.34964e-011 0.707107   
     length 0.739485   
     axis -90 45 6.32835e-014   XYZ
    dof rx rz
    limits (-45.0 45.0)
           (-45.0 45.0)
  end
  begin
     id 24 
     name rclavicle
     direction -0.949427 0.303202 0.0815894   
     length 3.76167  
     axis 0 0 0   XYZ 
    dof ry rz
    limits (-10.0 20.0)
           (-20.0 0.0)
  end
  begin
     id 25 
     name rhumerus
     direction -1 -4.48971e-011 -6.43969e-018  
     length 4.88702   
     axis 180 30 90   XYZ
    dof rx ry rz
    limits (-90.0 60.0)
           (-90.0 90.0)
           (-90.0 90.0)
  end
  begin
     id 26 
     name rradius
     direction -1 -4.48987e-011 5.46662e-027   
     length 3.22603   
     axis 180 30 90   XYZ
    dof rx
    limits (-10.0 170.0)
  end
  begin
     id 27 
     name rwrist
     direction -1 -4.48956e-011 4.72476e-027   
     length 1.61302   
     axis -2.72261e-015 -90 -90   XYZ
    dof ry
    limits (-180.0 0.0)
  end
  begin
     id 28
     name rhand
     direction -1 -4.4889e-011 9.43571e-027   
     length 0.716293   
     axis -6.0311e-015 -90 -90   XYZ
    dof rx rz
    limits (-90.0 90.0)
           (-45.0 45.0)
  end
  begin
     id 29
     name rfingers
     direction -1 -4.48887e-011 1.88701e-026   
     length 0.577494   
     axis -1.20625e-014 -90 -90   XYZ
    dof rx
    limits (0.0 90.0)
  end
  begin
     id 30
     name rthumb
     direction -0.707107 -6.34825e-011 0.707107   
     length 0.829169   
     axis -90 -45 -6.32835e-014   XYZ
    dof rx rz
    limits (-45.0 45.0)
           (-45.0 45.0)
  end
:hierarchy
  begin
    root lhipjoint rhipjoint lowerback
    lhipjoint lfemur
    lfemur ltibia
    ltibia lfoot
    lfoot ltoes
    rhipjoint rfemur
    rfemur rtibia
    rtibia rfoot
    rfoot rtoes
    lowerback upperback
    upperback thorax
    thorax lowerneck lclavicle rclavicle
    lowerneck upperneck
    upperneck head
    lclavicle lhumerus
    lhumerus lradius
    lradius lwrist
    lwrist lhand lthumb
    lhand lfingers
    rclavicle rhumerus
    rhumerus rradius
    rradius rwrist
    rwrist rhand rthumb
    rhand rfingers
  end

#!OML:ASF F:\VICON\USERDATA\INSTALL\rory3\rory3.ASF
:FULLY-SPECIFIED
:DEGREES
3040
root 1.71843 18.5392 0.930321 -175.134 77.9159 -187.273
lowerback -9.5312 0.551965 0.107749
upperback -2.29476 0.807225 -0.135681
thorax 2.96316 0.436292 -0.103192
lowerneck -15.9862 11.1482 11.6407
upperneck 19.6651 15.6561 -11.5181
head 10.8368 7.00113 -3.57558
rclavicle -2.45872e-014 -7.15625e-015
rhumerus -42.2373 34.5978 -92.8504
rradius 63.2532
rwrist 196.774
rhand 1.67973 -23.549
rfingers 7.12502
rthumb 27.1983 -51.6085
lclavicle -2.45872e-014 -7.15625e-015
lhumerus -43.4203 -27.4745 102.523
lradius 60.9999
lwrist 31.3821
lhand -15.2681 31.5544
lfingers 7.12502
lthumb 10.9062 61.2511
rfemur -4.53574 -19.2554 20.4291
rtibia -7.95139e-015
rfoot -5.87741 8.14591
rtoes -6.29213
lfemur -16.7184 3.12675 -17.055
ltibia 17.8789
lfoot -12.8129 -8.79042
ltoes -29.6048
3041
root 1.72291 18.538 0.938849 -175.204 77.6504 -187.243
lowerback -9.5451 0.628958 0.0996612
upperback -2.33037 0.913443 -0.176111
thorax 2.93481 0.489854 -0.127901
lowerneck -16.0513 11.0321 11.3698
upperneck 20.079 15.5135 -11.1158
head 10.9187 6.95133 -3.4154
rclavicle 1.79776e-014 -1.98785e-016
rhumerus -41.5001 33.9143 -93.3114
rradius 62.1169
rwrist 196.919
rhand 1.74794 -23.4957
rfingers 7.12502
rthumb 27.2635 -51.545
lclavicle 1.79776e-014 -1.98785e-016
lhumerus -42.8019 -27.8668 102.643
lradius 60.6101
lwrist 31.108
lhand -14.7544 32.1743
lfingers 7.12502
lthumb 11.4017 61.8443
rfemur -4.38867 -19.5201 20.4296
rtibia 1.11319e-014
rfoot -5.95706 8.21086
rtoes -6.36446
lfemur -16.6001 3.30291 -17.0594
ltibia 17.7641
lfoot -12.7255 -9.21398
ltoes -29.3923
3042
root 1.72111 18.5355 0.95062 -175.378 77.3691 -187.544
lowerback -9.7438 0.72408 0.052416
upperback -2.43112 1.05406 -0.288349
thorax 2.94198 0.562066 -0.198584
lowerneck -16.0627 10.8526 11.1298
upperneck 20.4382 15.2694 -10.719
head 10.9625 6.86083 -3.2827
rclavicle 5.14355e-015 1.07344e-014
rhumerus -40.7143 33.0912 -93.6758
rradius 61.1289
rwrist 196.848
rhand 1.18444 -23.4302
rfingers 7.12502
rthumb 26.7244 -51.563
lclavicle 5.14355e-015 1.07344e-014
lhumerus -42.2226 -28.2694 102.647
lradius 60.1569
lwrist 30.5862
lhand -15.1957 32.2247
lfingers 7.12502
lthumb 10.976 61.9178
rfemur -4.51885 -19.8027 20.4462
rtibia -1.27222e-014
rfoot -5.94197 8.2697
rtoes -6.30792
lfemur -16.7266 3.09664 -17.118
ltibia 17.5052
lfoot -12.4011 -9.28689
ltoes -28.4801
3043
root 1.71489 18.5274 0.964174 -175.148 77.0148 -187.499
lowerback -9.94146 0.755706 0.034497
upperback -2.57966 1.10745 -0.342517
thorax 2.89807 0.591879 -0.236342
lowerneck -16.0499 10.6961 10.8746
upperneck 20.8569 15.0765 -10.3239
head 11.0309 6.79401 -3.13894
rclavicle -1.3418e-015 -3.97569e-015
rhumerus -39.9291 32.3446 -93.9942
rradius 60.2772
rwrist 196.803
rhand 0.347992 -23.1489
rfingers 7.12502
rthumb 25.9236 -51.4013
lclavicle -1.3418e-015 -3.97569e-015
lhumerus -41.6841 -28.5239 102.579
lradius 59.8388
lwrist 30.0227
lhand -15.2777 32.0039
lfingers 7.12502
lthumb 10.8969 61.7012
rfemur -5.07514 -20.1289 20.6599
rtibia 0.612577
rfoot -6.18215 8.35061
rtoes -6.06053
lfemur -17.0014 2.88333 -17.0972
ltibia 17.1813
lfoot -11.7665 -9.47133
ltoes -26.7092
3044
root 1.71262 18.5223 0.973913 -175.117 76.6585 -187.481
lowerback -10.0698 0.781754 0.0499266
upperback -2.62044 1.14581 -0.400868
thorax 2.92826 0.612394 -0.299019
lowerneck -16.017 10.563 10.7245
upperneck 21.195 14.9204 -10.0794
head 11.0951 6.73817 -3.05842
rclavicle 1.32502e-014 7.15625e-015
rhumerus -39.0477 31.6962 -94.3222
rradius 59.4963
rwrist 196.904
rhand -0.24567 -22.7568
rfingers 7.12502
rthumb 25.355 -51.0912
lclavicle 1.32502e-014 7.15625e-015
lhumerus -40.9018 -28.6566 102.396
lradius 59.4398
lwrist 29.4827
lhand -15.0127 31.8898
lfingers 7.12502
lthumb 11.1525 61.5734
rfemur -6.42231 -20.4013 21.0103
rtibia 2.96042
rfoot -7.31215 8.57836
rtoes -5.97192
lfemur -16.9674 2.61644 -17.0677
ltibia 16.8254
lfoot -11.3218 -9.54599
ltoes -25.91
3045
root 1.71149 18.5233 0.986932 -175.65 76.3392 -188.014
lowerback -10.1493 0.813261 -0.0888935
upperback -2.65239 1.20816 -0.500254
thorax 2.93876 0.643959 -0.315064
lowerneck -15.968 10.429 10.5845
upperneck 21.5018 14.7517 -9.8207
head 11.1435 6.68009 -2.977
rclavicle -3.69367e-014 9.34288e-015
rhumerus -38.2124 31.1495 -94.6645
rradius 58.8443
rwrist 197.088
rhand -0.523934 -22.1849
rfingers 7.12502
rthumb 25.0884 -50.5568
lclavicle -3.69367e-014 9.34288e-015
lhumerus -40.085 -28.6313 102.138
lradius 59.1152
lwrist 29.0071
lhand -14.9455 31.7402
lfingers 7.12502
lthumb 11.2173 61.4203
rfemur -6.94049 -20.6935 21.042
rtibia 3.92629
rfoot -7.85694 8.65081
rtoes -5.93053
lfemur -16.8464 2.45273 -17.1816
ltibia 16.5387
lfoot -11.3178 -9.60315
ltoes -26.6437
3046
root 1.7125 18.5231 0.998345 -176.081 76.0876 -188.408
lowerback -10.2022 0.896564 -0.153179
upperback -2.69237 1.33303 -0.631266
thorax 2.92884 0.707091 -0.3984
lowerneck -16.0076 10.2648 10.4515
upperneck 21.9245 14.5241 -9.49062
head 11.2406 6.59911 -2.87712
rclavicle -3.04078e-014 -7.55382e-015
rhumerus -37.4617 30.4661 -95.0016
rradius 58.3104
rwrist 197.426
rhand -0.804469 -21.6539
rfingers 7.12502
rthumb 24.8196 -50.0631
lclavicle -3.04078e-014 -7.55382e-015
lhumerus -39.5231 -28.7075 101.868
lradius 59.0715
lwrist 28.6216
lhand -14.4813 31.6968
lfingers 7.12502
lthumb 11.665 61.3521
rfemur -7.04764 -20.94 20.9956
rtibia 4.23158
rfoot -8.00892 8.71666
rtoes -6.12788
lfemur -16.7696 2.316 -17.2602
ltibia 16.4128
lfoot -11.4082 -9.61079
ltoes -27.3908
3047
root 1.71808 18.5211 1.00766 -175.966 75.9358 -188.214
lowerback -10.3163 0.99324 -0.0766217
upperback -2.70093 1.45815 -0.69894
thorax 2.98731 0.77037 -0.493658
lowerneck -16.0405 10.1466 10.3811
upperneck 22.3301 14.3734 -9.26155
head 11.3549 6.54839 -2.80876
rclavicle -7.67185e-015 -9.74045e-015
rhumerus -36.5856 29.9815 -95.295
rradius 57.7475
rwrist 197.669
rhand -1.13097 -21.3559
rfingers 7.12502
rthumb 24.5067 -49.8079
lclavicle -7.67185e-015 -9.74045e-015
lhumerus -38.9167 -28.8943 101.59
lradius 59.0519
lwrist 28.3109
lhand -13.4715 31.6491
lfingers 7.12502
lthumb 12.6387 61.2468
rfemur -6.93565 -21.0875 21.0428
rtibia 4.2157
rfoot -7.99193 8.76203
rtoes -6.28286
lfemur -16.7131 2.24119 -17.1796
ltibia 16.4085
lfoot -11.435 -9.65882
ltoes -27.5236
3048
root 1.72258 18.5216 1.01952 -175.622 75.7581 -187.776
lowerback -10.4188 1.065 0.00803278
upperback -2.67194 1.5465 -0.736112
thorax 3.07786 0.814685 -0.566031
lowerneck -16.0651 10.0786 10.3912
upperneck 22.6213 14.2743 -9.10568
head 11.4447 6.52024 -2.77017
rclavicle 6.05082e-014 -1.38155e-014
rhumerus -35.505 29.746 -95.5741
rradius 57.161
rwrist 197.898
rhand -1.43136 -20.7838
rfingers 7.12502
rthumb 24.2187 -49.2744
lclavicle 6.05082e-014 -1.38155e-014
lhumerus -38.0172 -29.2519 101.247
lradius 58.9449
lwrist 28.2296
lhand -13.1531 31.9837
lfingers 7.12502
lthumb 12.9456 61.5621
rfemur -6.64717 -21.2638 21.1326
rtibia 3.91057
rfoot -7.88392 8.78438
rtoes -6.28531
lfemur -16.663 2.20212 -17.0298
ltibia 16.4745
lfoot -11.4473 -9.70161
ltoes -27.9292
3049
root 1.72527 18.5237 1.03807 -175.575 75.4473 -187.628
lowerback -10.4498 1.08895 -0.0476878
upperback -2.64991 1.58619 -0.781923
thorax 3.11811 0.834163 -0.576102
lowerneck -16.0305 9.97861 10.2637
upperneck 22.8189 14.1187 -8.81928
head 11.4591 6.47294 -2.67628
rclavicle -1.61326e-014 1.26228e-014
rhumerus -34.4087 29.5559 -95.7958
rradius 56.6705
rwrist 198.093
rhand -1.54157 -20.2914
rfingers 7.12502
rthumb 24.113 -48.7961
lclavicle -1.61326e-014 1.26228e-014
lhumerus -37.1349 -29.415 100.767
lradius 59.0192
lwrist 27.8955
lhand -13.7181 32.4773
lfingers 7.12502
lthumb 12.4009 62.0895
rfemur -6.08814 -21.5893 21.131
rtibia 3.18136
rfoot -7.61439 8.73926
rtoes -6.28168
lfemur -16.5955 2.07019 -16.9101
ltibia 16.6203
lfoot -11.5865 -9.86109
ltoes -28.0427
3050
root 1.72675 18.5238 1.05898 -175.296 75.1315 -187.195
lowerback -10.4293 1.08841 -0.0905974
upperback -2.62234 1.5886 -0.76732
thorax 3.13394 0.834695 -0.536619
lowerneck -15.8822 9.88345 10.073
upperneck 22.9127 13.9834 -8.52826
head 11.4096 6.43585 -2.57248
rclavicle -2.72087e-014 1.54058e-014
rhumerus -33.297 29.4902 -95.9562
rradius 56.1948
rwrist 198.197
rhand -1.57537 -19.6859
rfingers 7.12502
rthumb 24.0806 -48.1949
lclavicle -2.72087e-014 1.54058e-014
lhumerus -36.2413 -29.2574 100.185
lradius 59.0553
lwrist 27.1417
lhand -14.417 32.3096
lfingers 7.12502
lthumb 11.727 61.9613
rfemur -5.3536 -21.9203 21.1693
rtibia 2.23895
rfoot -7.21131 8.67778
rtoes -5.95424
lfemur -16.5249 1.94555 -16.6896
ltibia 16.7711
lfoot -11.7229 -10.0751
ltoes -28.1553
3051
root 1.72465 18.5208 1.07827 -174.46 74.8972 -186.213
lowerback -10.4433 1.13706 0.074364
upperback -2.56725 1.63268 -0.736546
thorax 3.20284 0.856589 -0.590756
lowerneck -15.9533 9.78974 9.82083
upperneck 23.1596 13.8322 -8.13228
head 11.4459 6.38773 -2.41366
rclavicle -2.39256e-014 -8.74653e-015
rhumerus -32.1225 29.4885 -96.1201
rradius 55.7803
rwrist 198.419
rhand -2.27681 -18.6771
rfingers 7.12502
rthumb 23.4079 -47.2734
lclavicle -2.39256e-014 -8.74653e-015
lhumerus -35.21 -29.1046 99.4925
lradius 59.064
lwrist 26.2659
lhand -14.3824 31.9758
lfingers 7.12502
lthumb 11.7604 61.6256
rfemur -4.74112 -22.1491 21.3801
rtibia 1.43257
rfoot -6.91786 8.63108
rtoes -5.76159
lfemur -16.5213 1.94164 -16.343
ltibia 16.8584
lfoot -11.6647 -10.2735
ltoes -27.8856
3052
root 1.71756 18.5213 1.09026 -174.548 74.8211 -186.288
lowerback -10.5096 1.20934 0.0525464
upperback -2.54434 1.73296 -0.779434
thorax 3.26511 0.906315 -0.607994
lowerneck -16.0162 9.69878 9.6641
upperneck 23.4284 13.7121 -7.8966
head 11.5147 6.34511 -2.32142
rclavicle -4.14963e-014 -4.37326e-015
rhumerus -30.9247 29.6311 -96.2236
rradius 55.3891
rwrist 198.492
rhand -3.49485 -18.1878
rfingers 7.12502
rthumb 22.239 -46.9283
lclavicle -4.14963e-014 -4.37326e-015
lhumerus -34.1684 -28.8058 98.8142
lradius 59.1034
lwrist 25.3497
lhand -13.9554 31.8846
lfingers 7.12502
lthumb 12.1721 61.5105
rfemur -4.57547 -22.2331 21.347
rtibia 1.0951
rfoot -6.6749 8.61987
rtoes -5.53673
lfemur -16.5658 1.82068 -16.3253
ltibia 16.8918
lfoot -11.5792 -10.1872
ltoes -27.7218
3053
root 1.70601 18.5217 1.09894 -174.926 74.6985 -186.68
lowerback -10.5052 1.27105 -0.00695647
upperback -2.57153 1.82576 -0.856321
thorax 3.23633 0.952876 -0.642499
lowerneck -15.9764 9.56264 9.53188
upperneck 23.6113 13.527 -7.68996
head 11.5294 6.27697 -2.25983
rclavicle -6.08778e-015 -1.22253e-014
rhumerus -29.7568 29.7401 -96.2229
rradius 55.0611
rwrist 198.305
rhand -4.38271 -18.2006
rfingers 7.12502
rthumb 21.3864 -47.0403
lclavicle -6.08778e-015 -1.22253e-014
lhumerus -33.2227 -28.5595 98.1171
lradius 59.239
lwrist 24.709
lhand -13.7863 31.7793
lfingers 7.12502
lthumb 12.3351 61.3954
rfemur -4.75137 -22.3548 21.2935
rtibia 1.28464
rfoot -6.65641 8.69779
rtoes -5.37103
lfemur -16.6719 1.52529 -16.4042
ltibia 16.9208
lfoot -11.6732 -9.9845
ltoes -28.8067
3054
root 1.69524 18.5203 1.11426 -174.93 74.4403 -186.659
lowerback -10.4914 1.30192 -0.0234704
upperback -2.57871 1.87163 -0.918262
thorax 3.22341 0.976033 -0.691825
lowerneck -15.9936 9.41402 9.41053
upperneck 23.8138 13.2992 -7.42927
head 11.5558 6.19395 -2.185
rclavicle 3.60856e-014 -7.35503e-015
rhumerus -28.5362 29.7638 -96.1956
rradius 54.7395
rwrist 198.138
rhand -4.887 -18.2002
rfingers 7.12502
rthumb 20.902 -47.0941
lclavicle 3.60856e-014 -7.35503e-015
lhumerus -32.2818 -28.6168 97.4099
lradius 59.4173
lwrist 24.9162
lhand -13.9606 32.0049
lfingers 7.12502
lthumb 12.1671 61.631
rfemur -5.23316 -22.5726 21.4889
rtibia 2.07301
rfoot -7.00565 8.83498
rtoes -5.60581
lfemur -16.7733 1.37061 -16.3487
ltibia 16.9238
lfoot -11.6622 -10.0588
ltoes -29.1027
